<svg xmlns="http://www.w3.org/2000/svg" viewBox="0 0 1440 320" preserveAspectRatio="none"><path fill="#fff" fill-opacity="1" d="M0,64L30,58.7C60,53,120,43,180,53.3C240,64,300,96,360,96C420,96,480,64,540,69.3C600,75,660,117,720,160C780,203,840,245,900,234.7C960,224,1020,160,1080,144C1140,128,1200,160,1260,170.7C1320,181,1380,171,1410,165.3L1440,160L1440,320L1410,320C1380,320,1320,320,1260,320C1200,320,1140,320,1080,320C1020,320,960,320,900,320C840,320,780,320,720,320C660,320,600,320,540,320C480,320,420,320,360,320C300,320,240,320,180,320C120,320,60,320,30,320L0,320Z"></path></svg>